TITLE ""
FILE "1Q_t_0588-0600.mp3" MP3
  TRACK 01 AUDIO
    TITLE "1Q_t_0588-0600_01"
    INDEX 01 00:00:00
  TRACK 02 AUDIO
    TITLE "1Q_t_0588-0600_02"
    INDEX 01 00:00:10
  TRACK 03 AUDIO
    TITLE "1Q_t_0588-0600_03"
    INDEX 01 00:01:12
  TRACK 04 AUDIO
    TITLE "1Q_t_0588-0600_04"
    INDEX 01 00:01:22
  TRACK 05 AUDIO
    TITLE "1Q_t_0588-0600_05"
    INDEX 01 00:02:23
  TRACK 06 AUDIO
    TITLE "1Q_t_0588-0600_06"
    INDEX 01 00:02:31
  TRACK 07 AUDIO
    TITLE "1Q_t_0588-0600_07"
    INDEX 01 00:08:59
  TRACK 08 AUDIO
    TITLE "1Q_t_0588-0600_08"
    INDEX 01 00:09:33
  TRACK 09 AUDIO
    TITLE "1Q_t_0588-0600_09"
    INDEX 01 00:10:67
  TRACK 10 AUDIO
    TITLE "1Q_t_0588-0600_10"
    INDEX 01 00:11:02
  TRACK 11 AUDIO
    TITLE "1Q_t_0588-0600_11"
    INDEX 01 00:12:41
  TRACK 12 AUDIO
    TITLE "1Q_t_0588-0600_12"
    INDEX 01 00:12:49
  TRACK 13 AUDIO
    TITLE "1Q_t_0588-0600_13"
    INDEX 01 00:19:08
  TRACK 14 AUDIO
    TITLE "1Q_t_0588-0600_14"
    INDEX 01 00:19:53
  TRACK 15 AUDIO
    TITLE "1Q_t_0588-0600_15"
    INDEX 01 00:21:01
  TRACK 16 AUDIO
    TITLE "1Q_t_0588-0600_16"
    INDEX 01 00:21:09
  TRACK 17 AUDIO
    TITLE "1Q_t_0588-0600_17"
    INDEX 01 00:22:22
  TRACK 18 AUDIO
    TITLE "1Q_t_0588-0600_18"
    INDEX 01 00:22:30
  TRACK 19 AUDIO
    TITLE "1Q_t_0588-0600_19"
    INDEX 01 00:28:34
  TRACK 20 AUDIO
    TITLE "1Q_t_0588-0600_20"
    INDEX 01 00:29:04
  TRACK 21 AUDIO
    TITLE "1Q_t_0588-0600_21"
    INDEX 01 00:30:29
  TRACK 22 AUDIO
    TITLE "1Q_t_0588-0600_22"
    INDEX 01 00:30:39
  TRACK 23 AUDIO
    TITLE "1Q_t_0588-0600_23"
    INDEX 01 00:32:69
  TRACK 24 AUDIO
    TITLE "1Q_t_0588-0600_24"
    INDEX 01 00:33:02
  TRACK 25 AUDIO
    TITLE "1Q_t_0588-0600_25"
    INDEX 01 00:40:67
  TRACK 26 AUDIO
    TITLE "1Q_t_0588-0600_26"
    INDEX 01 00:41:37
  TRACK 27 AUDIO
    TITLE "1Q_t_0588-0600_27"
    INDEX 01 00:42:73
  TRACK 28 AUDIO
    TITLE "1Q_t_0588-0600_28"
    INDEX 01 00:43:08
  TRACK 29 AUDIO
    TITLE "1Q_t_0588-0600_29"
    INDEX 01 00:46:14
  TRACK 30 AUDIO
    TITLE "1Q_t_0588-0600_30"
    INDEX 01 00:46:20
  TRACK 31 AUDIO
    TITLE "1Q_t_0588-0600_31"
    INDEX 01 00:53:28
  TRACK 32 AUDIO
    TITLE "1Q_t_0588-0600_32"
    INDEX 01 00:53:71
  TRACK 33 AUDIO
    TITLE "1Q_t_0588-0600_33"
    INDEX 01 00:55:07
  TRACK 34 AUDIO
    TITLE "1Q_t_0588-0600_34"
    INDEX 01 00:55:15
  TRACK 35 AUDIO
    TITLE "1Q_t_0588-0600_35"
    INDEX 01 00:57:46
  TRACK 36 AUDIO
    TITLE "1Q_t_0588-0600_36"
    INDEX 01 00:57:53
  TRACK 37 AUDIO
    TITLE "1Q_t_0588-0600_37"
    INDEX 01 01:04:32
  TRACK 38 AUDIO
    TITLE "1Q_t_0588-0600_38"
    INDEX 01 01:05:02
  TRACK 39 AUDIO
    TITLE "1Q_t_0588-0600_39"
    INDEX 01 01:06:19
  TRACK 40 AUDIO
    TITLE "1Q_t_0588-0600_40"
    INDEX 01 01:06:29
  TRACK 41 AUDIO
    TITLE "1Q_t_0588-0600_41"
    INDEX 01 01:08:65
  TRACK 42 AUDIO
    TITLE "1Q_t_0588-0600_42"
    INDEX 01 01:08:73
  TRACK 43 AUDIO
    TITLE "1Q_t_0588-0600_43"
    INDEX 01 01:13:19
  TRACK 44 AUDIO
    TITLE "1Q_t_0588-0600_44"
    INDEX 01 01:13:66
  TRACK 45 AUDIO
    TITLE "1Q_t_0588-0600_45"
    INDEX 01 01:15:26
  TRACK 46 AUDIO
    TITLE "1Q_t_0588-0600_46"
    INDEX 01 01:15:36
  TRACK 47 AUDIO
    TITLE "1Q_t_0588-0600_47"
    INDEX 01 01:18:06
  TRACK 48 AUDIO
    TITLE "1Q_t_0588-0600_48"
    INDEX 01 01:18:12
  TRACK 49 AUDIO
    TITLE "1Q_t_0588-0600_49"
    INDEX 01 01:24:03
  TRACK 50 AUDIO
    TITLE "1Q_t_0588-0600_50"
    INDEX 01 01:24:48
  TRACK 51 AUDIO
    TITLE "1Q_t_0588-0600_51"
    INDEX 01 01:25:52
  TRACK 52 AUDIO
    TITLE "1Q_t_0588-0600_52"
    INDEX 01 01:25:67
  TRACK 53 AUDIO
    TITLE "1Q_t_0588-0600_53"
    INDEX 01 01:28:58
  TRACK 54 AUDIO
    TITLE "1Q_t_0588-0600_54"
    INDEX 01 01:28:66
  TRACK 55 AUDIO
    TITLE "1Q_t_0588-0600_55"
    INDEX 01 01:36:28
  TRACK 56 AUDIO
    TITLE "1Q_t_0588-0600_56"
    INDEX 01 01:37:04
  TRACK 57 AUDIO
    TITLE "1Q_t_0588-0600_57"
    INDEX 01 01:38:05
  TRACK 58 AUDIO
    TITLE "1Q_t_0588-0600_58"
    INDEX 01 01:38:50
  TRACK 59 AUDIO
    TITLE "1Q_t_0588-0600_59"
    INDEX 01 01:39:75
  TRACK 60 AUDIO
    TITLE "1Q_t_0588-0600_60"
    INDEX 01 01:40:12
  TRACK 61 AUDIO
    TITLE "1Q_t_0588-0600_61"
    INDEX 01 01:44:12
  TRACK 62 AUDIO
    TITLE "1Q_t_0588-0600_62"
    INDEX 01 01:44:20
  TRACK 63 AUDIO
    TITLE "1Q_t_0588-0600_63"
    INDEX 01 01:49:29
  TRACK 64 AUDIO
    TITLE "1Q_t_0588-0600_64"
    INDEX 01 01:50:06
  TRACK 65 AUDIO
    TITLE "1Q_t_0588-0600_65"
    INDEX 01 01:51:27
  TRACK 66 AUDIO
    TITLE "1Q_t_0588-0600_66"
    INDEX 01 01:51:35
  TRACK 67 AUDIO
    TITLE "1Q_t_0588-0600_67"
    INDEX 01 01:53:36
  TRACK 68 AUDIO
    TITLE "1Q_t_0588-0600_68"
    INDEX 01 01:53:44
  TRACK 69 AUDIO
    TITLE "1Q_t_0588-0600_69"
    INDEX 01 01:59:70
  TRACK 70 AUDIO
    TITLE "1Q_t_0588-0600_70"
    INDEX 01 02:00:42
  TRACK 71 AUDIO
    TITLE "1Q_t_0588-0600_71"
    INDEX 01 02:01:73
  TRACK 72 AUDIO
    TITLE "1Q_t_0588-0600_72"
    INDEX 01 02:02:08
  TRACK 73 AUDIO
    TITLE "1Q_t_0588-0600_73"
    INDEX 01 02:04:32
  TRACK 74 AUDIO
    TITLE "1Q_t_0588-0600_74"
    INDEX 01 02:04:40
  TRACK 75 AUDIO
    TITLE "1Q_t_0588-0600_75"
    INDEX 01 02:11:52
  TRACK 76 AUDIO
    TITLE "1Q_t_0588-0600_76"
    INDEX 01 02:12:20
  TRACK 77 AUDIO
    TITLE "1Q_t_0588-0600_77"
    INDEX 01 02:13:19
  TRACK 78 AUDIO
    TITLE "1Q_t_0588-0600_78"
    INDEX 01 02:13:27
  TRACK 79 AUDIO
    TITLE "1Q_t_0588-0600_79"
    INDEX 01 02:16:51
  TRACK 80 AUDIO
    TITLE "1Q_t_0588-0600_80"
    INDEX 01 02:16:57
  TRACK 81 AUDIO
    TITLE "1Q_t_0588-0600_81"
    INDEX 01 02:22:42
